%FSLAX25Y25*%
%MOIN*%
G70*
G01*
G75*
G04 Layer_Physical_Order=2*
G04 Layer_Color=16711680*
%ADD10R,0.05709X0.04528*%
%ADD11R,0.07480X0.06890*%
%ADD12R,0.05512X0.01575*%
%ADD13R,0.01100X0.05800*%
%ADD14R,0.05800X0.01100*%
%ADD15R,0.03937X0.08661*%
%ADD16R,0.12992X0.08661*%
%ADD17R,0.10000X0.06000*%
%ADD18R,0.03000X0.03000*%
%ADD19R,0.03000X0.03000*%
%ADD20R,0.06000X0.10000*%
%ADD21R,0.05000X0.04000*%
%ADD22C,0.01000*%
%ADD23C,0.02000*%
%ADD24C,0.02500*%
%ADD25C,0.00800*%
%ADD26R,0.20000X0.20000*%
%ADD27C,0.07284*%
%ADD28R,0.07284X0.07284*%
%ADD29O,0.08268X0.04134*%
%ADD30C,0.07000*%
%ADD31R,0.07000X0.07000*%
%ADD32R,0.07000X0.07000*%
%ADD33C,0.04000*%
G36*
X250000Y192050D02*
X248580Y191568D01*
X248540Y191619D01*
X247962Y192063D01*
X247289Y192341D01*
X246567Y192437D01*
X245000D01*
Y189646D01*
Y186855D01*
X246567D01*
X247289Y186950D01*
X247962Y187229D01*
X248540Y187672D01*
X248580Y187724D01*
X250000Y187241D01*
Y163900D01*
X248580Y163418D01*
X248540Y163470D01*
X247962Y163913D01*
X247289Y164192D01*
X246567Y164287D01*
X245000D01*
Y161496D01*
Y158705D01*
X246567D01*
X247289Y158800D01*
X247962Y159079D01*
X248540Y159523D01*
X248580Y159574D01*
X250000Y159092D01*
Y100000D01*
X100000D01*
Y250000D01*
X250000D01*
Y192050D01*
D02*
G37*
%LPC*%
G36*
X110500Y182170D02*
X109904Y182092D01*
X108882Y181669D01*
X108004Y180996D01*
X107331Y180118D01*
X106908Y179096D01*
X106830Y178500D01*
X110500D01*
Y182170D01*
D02*
G37*
G36*
X111500D02*
Y178500D01*
X115170D01*
X115092Y179096D01*
X114669Y180118D01*
X113996Y180996D01*
X113118Y181669D01*
X112096Y182092D01*
X111500Y182170D01*
D02*
G37*
G36*
X115170Y177500D02*
X111500D01*
Y173830D01*
X112096Y173908D01*
X113118Y174331D01*
X113996Y175004D01*
X114669Y175882D01*
X115092Y176904D01*
X115170Y177500D01*
D02*
G37*
G36*
X244000Y164287D02*
X242433D01*
X241711Y164192D01*
X241038Y163913D01*
X240460Y163470D01*
X240016Y162891D01*
X239737Y162218D01*
X239708Y161996D01*
X244000D01*
Y164287D01*
D02*
G37*
G36*
X111000Y172236D02*
X109904Y172092D01*
X108882Y171669D01*
X108004Y170995D01*
X107331Y170118D01*
X106908Y169096D01*
X106764Y168000D01*
X106908Y166904D01*
X107331Y165882D01*
X108004Y165005D01*
X108882Y164331D01*
X109904Y163908D01*
X111000Y163764D01*
X112096Y163908D01*
X113118Y164331D01*
X113996Y165005D01*
X114669Y165882D01*
X115092Y166904D01*
X115236Y168000D01*
X115092Y169096D01*
X114669Y170118D01*
X113996Y170995D01*
X113118Y171669D01*
X112096Y172092D01*
X111000Y172236D01*
D02*
G37*
G36*
X110500Y177500D02*
X106830D01*
X106908Y176904D01*
X107331Y175882D01*
X108004Y175004D01*
X108882Y174331D01*
X109904Y173908D01*
X110500Y173830D01*
Y177500D01*
D02*
G37*
G36*
X141000Y184158D02*
Y182000D01*
X143157D01*
X143131Y182205D01*
X142858Y182862D01*
X142426Y183426D01*
X141862Y183858D01*
X141205Y184131D01*
X141000Y184158D01*
D02*
G37*
G36*
X197000Y185158D02*
X196795Y185131D01*
X196138Y184858D01*
X195574Y184426D01*
X195142Y183862D01*
X194869Y183205D01*
X194843Y183000D01*
X197000D01*
Y185158D01*
D02*
G37*
G36*
X183500Y198723D02*
X182795Y198630D01*
X182138Y198358D01*
X181574Y197926D01*
X181142Y197362D01*
X180869Y196705D01*
X180777Y196000D01*
X180869Y195295D01*
X181142Y194638D01*
X181574Y194074D01*
X182138Y193642D01*
X182795Y193369D01*
X183500Y193277D01*
X184205Y193369D01*
X184862Y193642D01*
X185426Y194074D01*
X185426Y194074D01*
X185426Y194074D01*
X185426Y194074D01*
Y194074D01*
X186324Y194445D01*
X186324D01*
X188777Y191993D01*
Y187007D01*
X183363Y181593D01*
X175870D01*
X175401Y181500D01*
X175004Y181235D01*
X169843Y176073D01*
X169705Y176130D01*
X169000Y176223D01*
X168295Y176130D01*
X167638Y175858D01*
X167074Y175426D01*
X166642Y174862D01*
X166369Y174205D01*
X166277Y173500D01*
X166369Y172795D01*
X166642Y172138D01*
X167074Y171574D01*
X167638Y171142D01*
X168295Y170870D01*
X169000Y170777D01*
X169705Y170870D01*
X170362Y171142D01*
X170926Y171574D01*
X171358Y172138D01*
X171631Y172795D01*
X171723Y173500D01*
X171631Y174205D01*
X171573Y174343D01*
X176376Y179146D01*
X179779D01*
X180245Y178449D01*
X180530Y177760D01*
X169843Y167073D01*
X169705Y167130D01*
X169000Y167223D01*
X168295Y167130D01*
X167638Y166858D01*
X167074Y166426D01*
X166642Y165862D01*
X166369Y165205D01*
X166277Y164500D01*
X166369Y163795D01*
X166642Y163138D01*
X167074Y162574D01*
X167638Y162142D01*
X168295Y161870D01*
X169000Y161777D01*
X169705Y161870D01*
X170362Y162142D01*
X170926Y162574D01*
X171358Y163138D01*
X171631Y163795D01*
X171723Y164500D01*
X171631Y165205D01*
X171573Y165343D01*
X182007Y175777D01*
X198000D01*
X198468Y175870D01*
X198865Y176135D01*
X208007Y185276D01*
X224084D01*
X224142Y185138D01*
X224574Y184574D01*
X225138Y184142D01*
X225795Y183870D01*
X226500Y183777D01*
X227205Y183870D01*
X227862Y184142D01*
X228426Y184574D01*
X228858Y185138D01*
X229131Y185795D01*
X229223Y186500D01*
X229131Y187205D01*
X228858Y187862D01*
X228426Y188426D01*
X227862Y188858D01*
X227205Y189130D01*
X226500Y189223D01*
X225795Y189130D01*
X225138Y188858D01*
X224574Y188426D01*
X224142Y187862D01*
X224084Y187724D01*
X207500D01*
X207032Y187630D01*
X206635Y187365D01*
X201602Y182333D01*
X200182Y182815D01*
X200131Y183205D01*
X199858Y183862D01*
X199426Y184426D01*
X198862Y184858D01*
X198205Y185131D01*
X198000Y185158D01*
Y182500D01*
X197500D01*
Y182000D01*
X194843D01*
X194869Y181795D01*
X195142Y181138D01*
X195574Y180574D01*
X196138Y180142D01*
X196795Y179869D01*
X197185Y179818D01*
X197313Y179443D01*
X196439Y178224D01*
X185591D01*
X185125Y178921D01*
X184840Y179609D01*
X190865Y185635D01*
X191130Y186032D01*
X191224Y186500D01*
X191224Y186500D01*
X191224Y186500D01*
Y186500D01*
Y192500D01*
X191130Y192968D01*
X190865Y193365D01*
X187365Y196865D01*
X186968Y197130D01*
X186500Y197223D01*
X185916D01*
X185858Y197362D01*
X185426Y197926D01*
X184862Y198358D01*
X184205Y198630D01*
X183500Y198723D01*
D02*
G37*
G36*
X140000Y181000D02*
X137843D01*
X137870Y180795D01*
X138142Y180138D01*
X138574Y179574D01*
X139138Y179142D01*
X139795Y178869D01*
X140000Y178842D01*
Y181000D01*
D02*
G37*
G36*
X143157D02*
X141000D01*
Y178842D01*
X141205Y178869D01*
X141862Y179142D01*
X142426Y179574D01*
X142858Y180138D01*
X143131Y180795D01*
X143157Y181000D01*
D02*
G37*
G36*
X140000Y184158D02*
X139795Y184131D01*
X139138Y183858D01*
X138574Y183426D01*
X138142Y182862D01*
X137870Y182205D01*
X137843Y182000D01*
X140000D01*
Y184158D01*
D02*
G37*
G36*
X190157Y144500D02*
X188000D01*
Y142342D01*
X188205Y142369D01*
X188862Y142642D01*
X189426Y143074D01*
X189858Y143638D01*
X190130Y144295D01*
X190157Y144500D01*
D02*
G37*
G36*
X164500Y146658D02*
X164295Y146631D01*
X163638Y146358D01*
X163074Y145926D01*
X162642Y145362D01*
X162370Y144705D01*
X162343Y144500D01*
X164500D01*
Y146658D01*
D02*
G37*
G36*
X165500D02*
Y144500D01*
X167657D01*
X167631Y144705D01*
X167358Y145362D01*
X166926Y145926D01*
X166362Y146358D01*
X165705Y146631D01*
X165500Y146658D01*
D02*
G37*
G36*
X164500Y143500D02*
X162343D01*
X162370Y143295D01*
X162642Y142638D01*
X163074Y142074D01*
X163638Y141642D01*
X164295Y141369D01*
X164500Y141342D01*
Y143500D01*
D02*
G37*
G36*
X167657D02*
X165500D01*
Y141342D01*
X165705Y141369D01*
X166362Y141642D01*
X166926Y142074D01*
X167358Y142638D01*
X167631Y143295D01*
X167657Y143500D01*
D02*
G37*
G36*
X187000Y144500D02*
X184843D01*
X184870Y144295D01*
X185142Y143638D01*
X185574Y143074D01*
X186138Y142642D01*
X186795Y142369D01*
X187000Y142342D01*
Y144500D01*
D02*
G37*
G36*
Y147658D02*
X186795Y147631D01*
X186138Y147358D01*
X185574Y146926D01*
X185142Y146362D01*
X184870Y145705D01*
X184843Y145500D01*
X187000D01*
Y147658D01*
D02*
G37*
G36*
X110500Y162170D02*
X109904Y162092D01*
X108882Y161669D01*
X108004Y160995D01*
X107331Y160118D01*
X106908Y159096D01*
X106830Y158500D01*
X110500D01*
Y162170D01*
D02*
G37*
G36*
X111500D02*
Y158500D01*
X115170D01*
X115092Y159096D01*
X114669Y160118D01*
X113996Y160995D01*
X113118Y161669D01*
X112096Y162092D01*
X111500Y162170D01*
D02*
G37*
G36*
X244000Y160996D02*
X239708D01*
X239737Y160774D01*
X240016Y160101D01*
X240460Y159523D01*
X241038Y159079D01*
X241711Y158800D01*
X242433Y158705D01*
X244000D01*
Y160996D01*
D02*
G37*
G36*
X188000Y147658D02*
Y145500D01*
X190157D01*
X190130Y145705D01*
X189858Y146362D01*
X189426Y146926D01*
X188862Y147358D01*
X188205Y147631D01*
X188000Y147658D01*
D02*
G37*
G36*
X110500Y157500D02*
X106830D01*
X106908Y156904D01*
X107331Y155882D01*
X108004Y155005D01*
X108882Y154331D01*
X109904Y153908D01*
X110500Y153830D01*
Y157500D01*
D02*
G37*
G36*
X115170D02*
X111500D01*
Y153830D01*
X112096Y153908D01*
X113118Y154331D01*
X113996Y155005D01*
X114669Y155882D01*
X115092Y156904D01*
X115170Y157500D01*
D02*
G37*
G36*
X178000Y230736D02*
X176904Y230592D01*
X175882Y230169D01*
X175004Y229496D01*
X174331Y228618D01*
X173908Y227596D01*
X173764Y226500D01*
X173908Y225404D01*
X174331Y224382D01*
X175004Y223504D01*
X175882Y222831D01*
X176904Y222408D01*
X178000Y222264D01*
X179096Y222408D01*
X180118Y222831D01*
X180996Y223504D01*
X181669Y224382D01*
X182092Y225404D01*
X182236Y226500D01*
X182092Y227596D01*
X181669Y228618D01*
X180996Y229496D01*
X180118Y230169D01*
X179096Y230592D01*
X178000Y230736D01*
D02*
G37*
G36*
X188000Y230736D02*
X186904Y230592D01*
X185882Y230169D01*
X185004Y229496D01*
X184331Y228618D01*
X183908Y227596D01*
X183764Y226500D01*
X183908Y225404D01*
X184331Y224382D01*
X185004Y223505D01*
X185882Y222831D01*
X186904Y222408D01*
X188000Y222264D01*
X189096Y222408D01*
X190118Y222831D01*
X190996Y223505D01*
X191669Y224382D01*
X192092Y225404D01*
X192236Y226500D01*
X192092Y227596D01*
X191669Y228618D01*
X190996Y229496D01*
X190118Y230169D01*
X189096Y230592D01*
X188000Y230736D01*
D02*
G37*
G36*
X202200Y230700D02*
X193800D01*
Y222300D01*
X202200D01*
Y230700D01*
D02*
G37*
G36*
X119000Y219313D02*
Y215500D01*
X122813D01*
X122730Y216133D01*
X122292Y217190D01*
X121597Y218096D01*
X120690Y218793D01*
X119633Y219230D01*
X119000Y219313D01*
D02*
G37*
G36*
X158000Y230736D02*
X156904Y230592D01*
X155882Y230169D01*
X155005Y229495D01*
X154331Y228618D01*
X153908Y227596D01*
X153764Y226500D01*
X153908Y225403D01*
X154331Y224382D01*
X155005Y223504D01*
X155882Y222831D01*
X156904Y222408D01*
X158000Y222264D01*
X159096Y222408D01*
X160118Y222831D01*
X160995Y223504D01*
X161669Y224382D01*
X162092Y225403D01*
X162236Y226500D01*
X162092Y227596D01*
X161669Y228618D01*
X160995Y229495D01*
X160118Y230169D01*
X159096Y230592D01*
X158000Y230736D01*
D02*
G37*
G36*
X168000Y230736D02*
X166904Y230592D01*
X165882Y230169D01*
X165005Y229495D01*
X164331Y228618D01*
X163908Y227596D01*
X163764Y226500D01*
X163908Y225404D01*
X164331Y224382D01*
X165005Y223504D01*
X165882Y222831D01*
X166904Y222408D01*
X168000Y222264D01*
X169096Y222408D01*
X170118Y222831D01*
X170995Y223504D01*
X171669Y224382D01*
X172092Y225404D01*
X172236Y226500D01*
X172092Y227596D01*
X171669Y228618D01*
X170995Y229495D01*
X170118Y230169D01*
X169096Y230592D01*
X168000Y230736D01*
D02*
G37*
G36*
X138342Y239842D02*
X129658D01*
Y231158D01*
X138342D01*
Y239842D01*
D02*
G37*
G36*
X233500Y239342D02*
X229658D01*
Y235500D01*
X233500D01*
Y239342D01*
D02*
G37*
G36*
X238342D02*
X234500D01*
Y235500D01*
X238342D01*
Y239342D01*
D02*
G37*
G36*
X122842D02*
X114158D01*
Y230658D01*
X122842D01*
Y239342D01*
D02*
G37*
G36*
X233500Y234500D02*
X229658D01*
Y230658D01*
X233500D01*
Y234500D01*
D02*
G37*
G36*
X238342D02*
X234500D01*
Y230658D01*
X238342D01*
Y234500D01*
D02*
G37*
G36*
X118000Y219313D02*
X117367Y219230D01*
X116310Y218793D01*
X115403Y218096D01*
X114708Y217190D01*
X114270Y216133D01*
X114187Y215500D01*
X118000D01*
Y219313D01*
D02*
G37*
G36*
X244000Y192437D02*
X242433D01*
X241711Y192341D01*
X241038Y192063D01*
X240460Y191619D01*
X240016Y191041D01*
X239737Y190368D01*
X239708Y190146D01*
X244000D01*
Y192437D01*
D02*
G37*
G36*
X159500Y197000D02*
X157343D01*
X157369Y196795D01*
X157642Y196138D01*
X158074Y195574D01*
X158638Y195142D01*
X159295Y194869D01*
X159500Y194843D01*
Y197000D01*
D02*
G37*
G36*
X162657D02*
X160500D01*
Y194843D01*
X160705Y194869D01*
X161362Y195142D01*
X161926Y195574D01*
X162358Y196138D01*
X162630Y196795D01*
X162657Y197000D01*
D02*
G37*
G36*
X115200Y192200D02*
X106800D01*
Y183800D01*
X115200D01*
Y192200D01*
D02*
G37*
G36*
X180500Y190723D02*
X179795Y190630D01*
X179138Y190358D01*
X178574Y189926D01*
X178142Y189362D01*
X177877Y188724D01*
X174500D01*
X174032Y188630D01*
X173635Y188365D01*
X157343Y172073D01*
X157205Y172131D01*
X156500Y172223D01*
X155795Y172131D01*
X155138Y171858D01*
X154574Y171426D01*
X154142Y170862D01*
X153869Y170205D01*
X153777Y169500D01*
X153869Y168795D01*
X154142Y168138D01*
X154574Y167574D01*
X155138Y167142D01*
X155795Y166869D01*
X156500Y166777D01*
X157205Y166869D01*
X157862Y167142D01*
X158426Y167574D01*
X158858Y168138D01*
X159131Y168795D01*
X159223Y169500D01*
X159131Y170205D01*
X159073Y170343D01*
X175007Y186276D01*
X178419D01*
X178574Y186074D01*
X179138Y185642D01*
X179795Y185370D01*
X180500Y185277D01*
X181205Y185370D01*
X181862Y185642D01*
X182426Y186074D01*
X182858Y186638D01*
X183131Y187295D01*
X183223Y188000D01*
X183131Y188705D01*
X182858Y189362D01*
X182426Y189926D01*
X181862Y190358D01*
X181205Y190630D01*
X180500Y190723D01*
D02*
G37*
G36*
X244000Y189146D02*
X239708D01*
X239737Y188923D01*
X240016Y188250D01*
X240460Y187672D01*
X241038Y187229D01*
X241711Y186950D01*
X242433Y186855D01*
X244000D01*
Y189146D01*
D02*
G37*
G36*
X118000Y214500D02*
X114187D01*
X114270Y213867D01*
X114708Y212810D01*
X115403Y211904D01*
X116310Y211208D01*
X117367Y210770D01*
X118000Y210687D01*
Y214500D01*
D02*
G37*
G36*
X122813D02*
X119000D01*
Y210687D01*
X119633Y210770D01*
X120690Y211208D01*
X121597Y211904D01*
X122292Y212810D01*
X122730Y213867D01*
X122813Y214500D01*
D02*
G37*
G36*
X134000Y219879D02*
X132867Y219730D01*
X131810Y219292D01*
X130903Y218597D01*
X130208Y217690D01*
X129770Y216633D01*
X129621Y215500D01*
X129770Y214367D01*
X130208Y213310D01*
X130903Y212403D01*
X131810Y211707D01*
X132867Y211270D01*
X134000Y211121D01*
X135133Y211270D01*
X136190Y211707D01*
X137097Y212403D01*
X137793Y213310D01*
X138230Y214367D01*
X138379Y215500D01*
X138230Y216633D01*
X137793Y217690D01*
X137097Y218597D01*
X136190Y219292D01*
X135133Y219730D01*
X134000Y219879D01*
D02*
G37*
G36*
X159500Y200157D02*
X159295Y200131D01*
X158638Y199858D01*
X158074Y199426D01*
X157642Y198862D01*
X157369Y198205D01*
X157343Y198000D01*
X159500D01*
Y200157D01*
D02*
G37*
G36*
X160500D02*
Y198000D01*
X162657D01*
X162630Y198205D01*
X162358Y198862D01*
X161926Y199426D01*
X161362Y199858D01*
X160705Y200131D01*
X160500Y200157D01*
D02*
G37*
G36*
X234000Y219379D02*
X232867Y219230D01*
X231810Y218793D01*
X230904Y218096D01*
X230207Y217190D01*
X229770Y216133D01*
X229621Y215000D01*
X229770Y213867D01*
X230207Y212810D01*
X230904Y211904D01*
X231810Y211208D01*
X232867Y210770D01*
X234000Y210621D01*
X235133Y210770D01*
X236190Y211208D01*
X237097Y211904D01*
X237792Y212810D01*
X238230Y213867D01*
X238379Y215000D01*
X238230Y216133D01*
X237792Y217190D01*
X237097Y218096D01*
X236190Y218793D01*
X235133Y219230D01*
X234000Y219379D01*
D02*
G37*
%LPD*%
D22*
X156500Y169500D02*
X174500Y187500D01*
X179500D01*
X169000Y173500D02*
X175870Y180370D01*
X183870D01*
X190000Y186500D01*
Y192500D01*
X186500Y196000D02*
X190000Y192500D01*
X183500Y196000D02*
X186500D01*
X207500Y186500D02*
X226500D01*
X198000Y177000D02*
X207500Y186500D01*
X181500Y177000D02*
X198000D01*
X169000Y164500D02*
X181500Y177000D01*
D27*
X118500Y215000D02*
D03*
X134000Y215500D02*
D03*
X234000Y215000D02*
D03*
D28*
X118500Y235000D02*
D03*
X134000Y235500D02*
D03*
X234000Y235000D02*
D03*
D29*
X244500Y189646D02*
D03*
Y161496D02*
D03*
D30*
X158000Y226500D02*
D03*
X168000Y226500D02*
D03*
X188000Y226500D02*
D03*
X178000Y226500D02*
D03*
X111000Y158000D02*
D03*
X111000Y178000D02*
D03*
X111000Y168000D02*
D03*
D31*
X198000Y226500D02*
D03*
D32*
X111000Y188000D02*
D03*
D33*
X160000Y197500D02*
D03*
X140500Y181500D02*
D03*
X165000Y144000D02*
D03*
X187500Y145000D02*
D03*
X180500Y188000D02*
D03*
X156500Y169500D02*
D03*
X183500Y196000D02*
D03*
X197500Y182500D02*
D03*
X169000Y164500D02*
D03*
Y173500D02*
D03*
X226500Y186500D02*
D03*
M02*
