M48
;Layer_Color=9474304
;FILE_FORMAT=2:4
INCH,TZ
;TYPE=PLATED
T2F00S00C0.0200
T3F00S00C0.0400
T4F00S00C0.0433
%
T02
X16500Y14400
X18750Y14500
X16900Y16450
Y17350
X15650Y16950
X16000Y19750
X18350Y19600
X18050Y18800
X19750Y18250
X22650Y18650
X14050Y18150
T03
X15800Y22650
X16800Y22650
X17800Y22650
X18800Y22650
X19800Y22650
X11100Y18800
X11100Y17800
X11100Y16800
X11100Y15800
T04
X23400Y21500
Y23500
X13400Y23550
X11850Y23500
Y21500
X13400Y21550
M30
